/* XPM */
static char *_6390553ff8b4178e26a839b916c6be4mUJ3cqmLVHYy4tCa[] = {
/* columns rows colors chars-per-pixel */
"64 64 253 2 ",
"   c #1D0A01",
".  c #1E1302",
"X  c #230C00",
"o  c #2A0E01",
"O  c #241302",
"+  c #2B1501",
"@  c #251904",
"#  c #2C1B04",
"$  c #261709",
"%  c #2C150B",
"&  c #2D1B0A",
"*  c #311501",
"=  c #331C02",
"-  c #3A1E02",
";  c #33160A",
":  c #331D0C",
">  c #3A1E0A",
",  c #2D1815",
"<  c #321D12",
"1  c #371D14",
"2  c #2C210A",
"3  c #352103",
"4  c #3B2303",
"5  c #3B2906",
"6  c #34220B",
"7  c #3B240C",
"8  c #3D290C",
"9  c #3F310E",
"0  c #352213",
"q  c #3C2413",
"w  c #3C2717",
"e  c #3D2522",
"r  c #432502",
"t  c #492302",
"y  c #432A03",
"u  c #4A2D02",
"i  c #42250C",
"p  c #442C0C",
"a  c #4A2D0C",
"s  c #542B02",
"d  c #4D3202",
"f  c #49340A",
"g  c #4C320C",
"h  c #533504",
"j  c #5A3606",
"k  c #553A05",
"l  c #5B3B04",
"z  c #53350B",
"x  c #553A0B",
"c  c #5A3C0C",
"v  c #412614",
"b  c #452B13",
"n  c #492D13",
"m  c #422A1A",
"M  c #482B1B",
"N  c #473114",
"B  c #4C3313",
"V  c #4C331B",
"C  c #49391B",
"Z  c #523513",
"A  c #593513",
"S  c #553B13",
"D  c #5B3D13",
"F  c #53361B",
"G  c #543A1B",
"H  c #5A3D1A",
"J  c #643D05",
"K  c #623D17",
"L  c #452A21",
"P  c #4A3C22",
"I  c #583C22",
"U  c #653F20",
"Y  c #5D4204",
"T  c #5D420D",
"R  c #5B460C",
"E  c #4E411F",
"W  c #5D4413",
"Q  c #5B4616",
"!  c #5D421B",
"~  c #684804",
"^  c #63440C",
"/  c #644A0D",
"(  c #6B4E0C",
")  c #724E08",
"_  c #675105",
"`  c #6D5404",
"'  c #6C530D",
"]  c #735A03",
"[  c #785907",
"{  c #73550E",
"}  c #745B0C",
"|  c #624514",
" . c #6B4415",
".. c #644A13",
"X. c #6A4C14",
"o. c #62441A",
"O. c #644B1B",
"+. c #6A4D1A",
"@. c #714D19",
"#. c #6D5313",
"$. c #6C531B",
"%. c #735514",
"&. c #7A5714",
"*. c #745A14",
"=. c #7A5D14",
"-. c #72551B",
";. c #755B1A",
":. c #7A5C1B",
">. c #786006",
",. c #7C630D",
"<. c #7C6313",
"1. c #796218",
"2. c #7C631B",
"3. c #5A4729",
"4. c #58472D",
"5. c #6C4C22",
"6. c #664A28",
"7. c #714C25",
"8. c #6C5322",
"9. c #68522B",
"0. c #725422",
"q. c #745A23",
"w. c #785828",
"e. c #644C34",
"r. c #6C5333",
"t. c #6A5738",
"y. c #735934",
"u. c #785A39",
"i. c #7C6324",
"p. c #7D632B",
"a. c #7A6438",
"s. c #6D5E43",
"d. c #775B42",
"f. c #7A6545",
"g. c #845D0A",
"h. c #855C13",
"j. c #80650D",
"k. c #856416",
"l. c #836A15",
"z. c #82661C",
"x. c #846B1C",
"c. c #8A6E1D",
"v. c #936C17",
"b. c #897118",
"n. c #8B721D",
"m. c #99761C",
"M. c #A2771F",
"N. c #835429",
"B. c #825E38",
"V. c #826423",
"C. c #856C22",
"Z. c #8A6E25",
"A. c #82642B",
"S. c #886A2D",
"D. c #946F29",
"F. c #8C7224",
"G. c #8C742B",
"H. c #927425",
"J. c #947A25",
"K. c #977829",
"L. c #947A2C",
"P. c #826433",
"I. c #84613B",
"U. c #886938",
"Y. c #926C39",
"T. c #8A7237",
"R. c #977937",
"E. c #A17C26",
"W. c #A27C3D",
"Q. c #825E44",
"!. c #826243",
"~. c #876B49",
"^. c #8C6E4B",
"/. c #8C7246",
"(. c #947544",
"). c #967647",
"_. c #9C7C44",
"`. c #957B4B",
"'. c #9B7B4B",
"]. c #8E7656",
"[. c #947954",
"{. c #967857",
"}. c #9C7D52",
"|. c #A37E47",
" X c #A37C53",
".X c #987B62",
"XX c #A5801D",
"oX c #9B822B",
"OX c #9D8333",
"+X c #A7862A",
"@X c #B58D2B",
"#X c #A7873A",
"$X c #B48F31",
"%X c #BB973A",
"&X c #C19B2E",
"*X c #C7A23A",
"=X c #D3AD3D",
"-X c #9D824C",
";X c #9E8253",
":X c #9E8658",
">X c #A3834C",
",X c #A98949",
"<X c #B48C47",
"1X c #A48354",
"2X c #A78857",
"3X c #AB8C54",
"4X c #A4835B",
"5X c #AC8C5B",
"6X c #B08B59",
"7X c #AE9159",
"8X c #B6965A",
"9X c #B4935C",
"0X c #BFA15D",
"qX c #9F8564",
"wX c #A68965",
"eX c #B28C62",
"rX c #AC9263",
"tX c #AE936B",
"yX c #B39363",
"uX c #BC9B64",
"iX c #B69768",
"pX c #BB956A",
"aX c #BC9B6C",
"sX c #AC8F72",
"dX c #B99B74",
"fX c #BCA169",
"gX c #BCA372",
"hX c #C49F43",
"jX c #CEAC47",
"kX c #D5AC45",
"lX c #D9B54B",
"zX c #C9A857",
"xX c #C19D6A",
"cX c #C49D73",
"vX c #C3A364",
"bX c #C3A36B",
"nX c #CAA96C",
"mX c #D4B36F",
"MX c #C7A676",
"NX c #CAA573",
"BX c #CBAB7C",
"VX c #D1AC76",
"CX c #D6B579",
"ZX c #E2BE72",
"AX c #E6C47C",
"SX c #CAAD83",
"DX c #D5AE86",
"FX c #DAB886",
"GX c #D5B88F",
"HX c #E1BC85",
"JX c #DEC284",
"KX c #E6C589",
"LX c #ECCA97",
/* pixels */
"(.>XuXgX,X3XbXaX3Xw.-.w._.p.x O.(.-XgXgX-X'.BXaX7X(.-.5.T./.c R U.T.:X;XT.(.iX1X4X'./.(.(.q.y ..T./.:XiX1X7XSXrXaX`.U.;X2X'.u bX",
"q.q.q.2.=.&.V.&.z.:.A.@.$.c u u O.W O.Q x k h h z c O.j O.c y 4 g R 8...O.x D x J x k x W T d k W Q ../ l J k Y d / ..k k | h 1X",
"l u ~ J ) g.XXm.h.v.@.J d X.d R x g d d d d y d u u u u y d d h d h h h h h k j h h h j k k x T x d k Y ) g.v.v.k.h.&.s r x y q.",
"V.=.[ v.*XkX*X*X@XE.D.) ~ k d R T W T R ..| R k k W X.$.+.+.$.^ / ../ ^ ^ ^ l T ^ R ^ ^ l l k d Q ^ _ l.hXlX&X=X@XM.v.=.~ ..g H ",
"` =.J.*XlX=X=XjX@X$Xm.k.{ ' i.*.1.2.;.;.*.*.#.2.;.;.*.#.( ' ' #.%.-.&.:.&.%.( %.%.&.-.:.;.;.-.;.} <.J.jXjXkX=X*X@X%XE.Z.-...c g ",
"k.K.+X%XlX=X&XlXM.hXm.h.) h.L.L.L.L.G.F.C.2.<.<.,.,.} ` ` } <.z.V.C.Z.Z.Z.C.V.z.V.x.z.C.D.L.L.+XJ.oXM.*XkXkX%XkX@X%XH.&.( X.W p ",
"g.K.@XjXlX&X@X*Xv.$XE.J ~ ) h.<.,.,.<.x.l.,.} ] ,.2.b.l.2.<.<.<.k.z.z.F.F.Z.F.k.z.<.=.&.*.=.k.j.[ E.+XlXlX*X@XjXv.+XH.( -.0.d 3.",
"[ $X%X%X@Xm.+XjX#XW.W.t J ) ) z.<.<.c.F.F.F.x.k.C.F.c.z.<.,.} _ _ } =.z.c.F.G.L.L.L.H.c.x.z.k.k.j.@X%XhX+Xm.+XjXE.#XW.X. .+.u u.",
"h.<XJ.#XzXZXAXAXmX6XY.s J K J h.%.( &.:.:.:.-.:.;.&.%.%.-.&.*.( ` %.*.=.2.z.z.} *.2.*.} ' { { J g.W.D.E.zXZXAXKXmX8X X+.K K A r.",
"@.W.R.vXCX0X,X3X9X(.K A s J t J l l |  .| J J  .+.@. .+.@.X.^ @.#.#.#.X.^ Y Y Y Y ^ Y l Y ^ ~ ~ ) |.W.VXZXvX,X,X8X(.8X{.!.K t B.",
"N.V.0XnX7XmXJXLX6Xz 5.pXY.K s A c K o.o.o.K D D D K x x z h h x x h d k x x x x x x d d d d s s N.Y.xXNX5XNXFXLX>X5X'.eX^.K A u.",
"K |.fXfXnXCXgXMX X4XSXDXQ.7.s K H o.D D x g z u a z A A z z z a y y g B S H ! H ! ! ! S G H H s K  XcXxXNXFXCXbX1X3X9XBX|.7.t r.",
"t >XnX8X0XmXJXKXnXGX}.}.VXY.K s x S W D D S S S D D S z u 3 - - > 4 7 i n n n b b N n i v b V t t  XcXcXVXuXCXKXfXCX-X7XyXw.o.u.",
"r (.yX,XvX0X7XT.bXyX}.iXpX^.h 4 5 y 5 4 3 = = y y f f y y 4 3 p v v v m v v v w v q > > ; 7 7 p t  XcX X(.S.nXvXfXiXOX8XxX`.u y.",
"C /.rX7X3XfXFXR.2X`.:XdXtXa.3 y 8 p 8 p 4 4 3 & # 3 3 3 3 4 6 7 q q w m m w w m m q 1 : 6 1 : 7 ; ^.pXN.0.|.nXfXzX>X;XiXrXa.3 y.",
"3 5 [.BXyX(.P.w.P.GXGX[.f.3 = # # 3 3 6 6 6 6 8 p 5 6 : # = # # % & : : 0 : : q : & & & : : : 6 ; V r.U w._.>X_.R.gXBXtXf.3 # f.",
"w O 7 y.4XdXiX5.A 6.wXd.* % & 0 w 0 < % % & , % < 0 < < < 0 0 : & : & & & & & & % # # & & & % O < # q d. XpXcXcXDXsXsXd.X % ; d.",
", , ; + i 6.7.F I * 1 ; + % O X     X X X X O   X X X O X X O O O O + @ # # + O + + O O O O # ,   , * + i U u.7.K n * o , % % Q.",
"e 0 w v > > ; v o ; M * b b i b n n i n n Z F Z B F G Z a a a a f f a a g B y p y p p f p p b m e 1 q > * Z = = * * V > 1 M ; Q.",
"I L w N F I F M i M i 7 p t t c x x j z z h j x h h j l | +.$.$.+...T T W T R x x c c D D x A i M > v I G G y G n r i 4 i F > B.",
"Q Q O.W 8.8.S ! Z H r Z S +.0.-.%.*.*.#.' ' ( *.1.;.*.2.z.2.*.' ' *.' *.,.1.;.*.-.;.1.2.q.2.q.O.@.K h | 8.T ..x x x g S H 9.a B.",
";.;.i.2.T.:.R q.| 5.W z x $.A.z.2.z.2.<.=.} ` ] <.n.F.J.oXJ.b.,.c.x.F.b.l.l.<.C.x.C.C.G.J.J.G.2.*.&.*.G.R.-.#.q.R X.T d x 8.z B.",
"_ <.J.OX#Xx.%.:.^ 8.q.u d X.i.R.oXoXoXJ.J.b.l.j.b.b.>.] ] ] ] j.,.b.b.b.l.l.l.,.,.,.,.<.l.l.b.J.=.c.n.L.#XC.#.V./ -.w.u k X.z B.",
"=.OXOXK.n.<.z.>XA.P.p.u h | i.z.x.l.c.n.b.l.l.,.l.b.,.,.l.J.J.` ] >.,.<.b.n.J.J.oXn.H.n.F.H.m.[ ] +X#XK.z.Z.V.-XA.P.A.u c | z B.",
"( #XZ.R.<XvXmXNXpX1XU.w.6.z c %.' %.*.1.z.2.2.*.*.:.*.{ %.' *.:.<.} =.h.:.z.V.=.=.=.&.*.=.*.{ ` [ H.z.) j |.VXBXiX'.7.K O.x c B.",
"@.|.R.nXmXzXW.|.6XeX).sX).S u W Y k l ^ ^ ^ ^ +.X...X.X. .X.#.-.X...(  .^ ^ J ^ ^ ^ ^  .^ J ~ h { W._.<XJ N.). XeX Xw. X(.z s B.",
"N.B.xXnX6XVXFXKXyXeXcXcX;Xo.d g g z x z z z g z z c c z z x S D c D j z z z x x x x z h s d s h @.Y.6XVXpXB.eXcXeXeXdXBX2XT s I.",
"6. XxXxXNXAXxXVX|. XdXNX;XO.x g z z Z g a y r r a a g a a g z g z a a z z H o.K H A A z g z z h j |.DXeXFXDXN. X4X XNXcX/.w.d U.",
"t  XSX9XxXmXFXKXCXVX3X7X2XT.R y a a g y y 4 3 u p p a p p a n r y 4 r f a g g H W D S S z Z S 4 h 4XpX6XNXcXLXHXBXBX7X7XuXp.x I.",
"> {.yX2XvX8X<X8XxXuX(.7XgX-Xy f f B B B f f p 8 y y i 5 8 y p y y p B B Z a a r 5 5 y 4 5 y u y A a.dXpXyXNX'. .bX3X).fXfXT.k I.",
"b ~.tX5X9XnXKXCXuX5X1XaX5Xa.f f N B N p 8 8 8 4 8 4 6 4 = - - 6 6 5 8 N N N 8 p 9 p f f g N B a = [.dX2XiXcXyX..fX7X-XdX:Xy.4 I.",
"+ - ].BXyX(.U.>X5XdXGXsXt.f 3 5 p q 8 8 q 8 7 7 w q 7 6 7 : 6 # # = 3 6 3 5 6 8 8 8 8 8 8 8 8 = i b ^.SXrX'.-.x U.MXSXdXf.p   I.",
"0 O 3 y.:XaXyX4XcXsXwXe.v % : 6 6 0 0 w w w w 0 < 0 : 0 1 < % 0 6 : : % : 6 0 0 6 q 6 6 6 6 q w : > - u.sXpX7.z ^.[.sXe.  e 1 !.",
"% : * + i 4.7.H I * 1 X = ; ; O X O X X   X   O X X X X X X O X X O + + + + + O + + # + # # + o X * * + = 7.B n H i + : % % o Q.",
"w 1 w q 4 4 = = > * > b v v b G S Z g g f g y f y y f a a a g g z z z z z z c z z z z x c c S v L M ; > > i = 4 * = : 0 w 1 % Q.",
"M v b V F I G B a a a b p i p Q R R T R W ..R k l W O.$.O.X.$.^ ^ ../ ^ ^ ^ l T l ^ ^ ^ l l z H A n n H Z S B B y p b p V V 4 Q.",
"5.8.Q +.8.Q R Q y x g y S ! q.$.:.2.;.*.;.*.' 2.2.;.*.#.' ' #.%.%.&.-.;.&.#.( %.%.&.-.;.;.;.-. .K K c +.X.O.T W g x k 5 B G 3 I.",
"$.i./ i.T.i.#.q.l $.R d W 8.U.L.L.L.G.G.x.z.<.1.,.*.} ` ` } <.2.z.Z.Z.F.Z.C.C.z.V.z.z.C.D.L.L.L.V.h.{ Z.S.i./ $.R O.Q u S W 4 I.",
">.F.F.OX#X2.*.i.^ w.X.d l W -.z.<.,.l.l.l.<.} ] ,.l.b.2.k.<.<.=.2.k.c.Z.Z.F.Z.z.z.z.=.} *.&.<.j.) l.b.#X,XC.%.:.( $.O.d k O.u I.",
"] oXOXOX*.Y G.R.V.S.q.l l l -.x.<.<.z.F.F.n.x.z.F.F.z.c.<.[ } _ ` } =.2.c.Z.H.L.L.L.H.Z.x.k.k.j.[ +XK.J.[ { C.|.S.S.w.k j | d I.",
"_ oXC.~ s ~ bXVXaX2X'.P.+.K ..-.( %.&.q.z.;.&.-.:.&.%.%.%.&.&.( ( %.*.1.2.z.C.} *.=.*.*.' ' ] ` ) E.V.h.D.|.HXcXyX4X}.u.@.o.x B.",
"$.OXS.X.l j 1XpXyX X X Xq.x s l j l ^ | J | ^  .X.@.+.+.@.+.^ %.#.#.X.( ^ Y Y Y Y Y Y Y Y ^ ( l ) W.Y.6XNXxX XcX5X5X4X(.w.D t Q.",
"p.(.1XBX(.s B.6XxXeX}.fX'.c z z c D o.o.K K D D K c x z z z s x k h h h x x x x x z h d u d d k :.Y.pXNXxX6XNXxXeXeXeXeX`.O.u B.",
"S /.BXNXNXpXs |.aX5XNXBXP.0.s D K o.K D x z h a a x A c z z z p y a g B S H ! H ! ! H S G D ! t o.).cXNXVXNXeX6X6XeXcXNX'.5.x N.",
"u wXNX4XNXDX3XHXyXVX-X7XNXp.R d z S D W S S S c Q S S g u 4 = 4 > 4 i p b M n b b N M i i n F r a 4XBXeXpXxX9XVXJXVX9X7X5XU.l u.",
"r [.tXtXxX'.vX8XmXnX_.3XrX-Xx 4 y y 5 4 - = = y y y g p r r 3 v v w v m v v v w v v 7 ; ; 7 7 V - ^.NXaXxXuXxX8XnX8X_.2XfX(.x I.",
"4 f.sXT.0.,XnX5X8XR $.gXrXf.X y p p 8 8 4 5 4 # # 3 3 3 3 4 4 7 q q w w m w w m m q 0 : : 6 : = v qXSXsX5X>XnXvXvXuXgXSXaX9.+ B.",
"% M F Z P.'.R.fXyX-Xx t.f.8 6 # # 2 6 6 6 6 6 8 8 8 7 6 # # # % % & : : 6 : : q : & & : : : : : # N 6.[.iX'.T.1XuXgXiX{.u.N * Q.",
"O q = r.dX7XrX(.rXwXH v 1 X , e 0 0 < , % & % < < < < < < 0 0 : & : : & 6 & & 2 & # # # & & & , , : b y. XdX5X XiXwXr.n 1 , % Q.",
"0 % : * * 6.9.6.H - ; 1 X 1 $   X X X     X X X   X X O X O O O O O O + # + # O + + O O O O # &   X ; o - 6.7.6.G - o % ; % o Q.",
"q q 7 7 3 - 7 + > * 1 m : 0 1 v b b 9 9 N B F Z Z F S N g p f 9 a a p B g a p p p i y b a a N 6 q 1 q q > i > i > * v : m < ; d.",
"V b r Z H F n b M M v i 7 g p A x z g R z z z z z d k c Q O.$.9.5.| W W D D S R x x c S c c B f p - - n V I V v > i b 7 V N * Q.",
"Z Q E ..8.O.x Q B S f 5 g O.8.$.$.$.#...' / / #.#.;.*.1.i.1.} ' ( ..#.#.;.1.q.#.#.-.;.;.;.;.$.R ..Q Q Q 9.O.Z O.g G B y C 4.3 !.",
"$.;.$.q.i.2.Q i.d W ..f k Q p.1.1.1.1.1.*.' _ ' 2.C.i.F.G.oX2.1.2.C.C.C.1.1.1.1.z.2.C.F.G.F.G.*.' ' ' ;.i.q.8.0.D O.S f S 4.= I.",
"R *.i.OXOXi.#.;.k O.8.R Y R ;.T.oXp.G.oXi.1.1.*.2.<.` _ _ _ _ ,.,.2.2.<.,.} } } } ] } } 1.,.2.F.} 1.n.OXR.;.#.q.k +.O.S B S * u.",
"$.T.OXG.1.$.$.T.w.w...9 Y ..#.*.;.1.1.2.2.1.,.' 1.1.} *.1.i.i._ _ _ ' ,.1.2.2.G.i.2.2.2.2.b.2._ _ <.C.C.C.#.$.R.w.y.y.D B B - f.",
"..p.p.S.R.7XfX2X5X^.u.A g x s W R Q X.$.8.8.$...X.O.#.Q R W R #...' ..#.#.$.$.#.X.../ Q ../ / Y ( G.i.S.-X1XaX5X'.^.d.I I I i d.",
"O.a.a.-XyX;Xa.f.[.^.[.~.I a y B f a f x S S Z ! Q S S S S Q ! W T E S S S x f x z g k x x x k u T P.P.'.aX'.a.~.].^.f.I I M = d.",
"4.y.`.`./.5XqXgX^.d..X.Xr.B y 7 8 p 9 N p p b 7 8 b b p b b b N p f p p p f a 8 p p y 8 5 5 5 a G y.^.{.[.;XwXdX!.u.6..Xd.v 7 t.",
"5 r.[.[.].`.qX;Xf.d.^.].d.I p w 0 8 8 6 6 6 = 6 0 8 q 6 5 w w 5 8 6 7 4 7 8 N N N N b p 8 8 i = b y.{..X[.:X:X].9.6.~.[.r.6.; r.",
"3 f.~.a./.a.:XrXqX].f.].f.3.3 5 6 6 6 6 3 3 2 2 6 6 6 6 2 6 6 6 = 3 3 6 8 w 9 q 8 8 8 7 8 6 7 + 8 t.].^.].;X-X:XQ a.9.f.f.3.f e.",
"= 6.a.a.-X$.3.a.f.t.9.s.~.e.5 & 6 0 6 6 2 2 2 & & & & # & 2 & # 2 6 6 6 6 6 3 & 2 2 2 2 2 3 6 6 6 e.~.d.a.f.t.2 Q E E s.].3.3 4.",
". 4.f.t.8 9 t.a.a.s.s.s.t.E 2 5 2 2 2 2 # @ @ @ @ @ @ @ $ . O @ @ # 2 2 2 @ @ # & 2 # 2 2 2 2 & $ 4.s.t.t.f.t.9.a.t.9 t.4.E @ e.",
". . E E 9 e.a.E 4.s.s.s.E 2 O 2 @ 2 2 2 2 $ @ . $ $ $ . . . $ @ . O O @ @ $ @ & & 2 & & $ & & $ . < P P t.f.f.4.E s.s.9 4.. O 4."
};
