/* XPM */
static char *_75a2f456e374662ebace2c9eec7de61aDK3w5z02NOyinDr[] = {
/* columns rows colors chars-per-pixel */
"64 64 241 2 ",
"   c #4F2F00",
".  c #553508",
"X  c #5B3717",
"o  c #643808",
"O  c #6A3C0B",
"+  c #663D16",
"@  c #673F22",
"#  c #66410E",
"$  c #6C4514",
"%  c #674318",
"&  c #6C441C",
"*  c #734919",
"=  c #78541F",
"-  c #594120",
";  c #644626",
":  c #6C4424",
">  c #6C4C24",
",  c #6B462C",
"<  c #654B2A",
"1  c #6C4B2C",
"2  c #724624",
"3  c #734B25",
"4  c #784B25",
"5  c #734B2B",
"6  c #7B4D2C",
"7  c #6D512D",
"8  c #7E5623",
"9  c #74512C",
"0  c #7A522D",
"q  c #6B4C32",
"w  c #6B4E38",
"e  c #734D32",
"r  c #794E31",
"t  c #7B4F3B",
"y  c #6D5336",
"u  c #745333",
"i  c #7C5334",
"p  c #785A34",
"a  c #72533B",
"s  c #7B543B",
"d  c #755A3C",
"f  c #7C593B",
"g  c #7C5C42",
"h  c #785844",
"j  c #796348",
"k  c #864E2B",
"l  c #84532D",
"z  c #8C552C",
"x  c #89592B",
"c  c #94552C",
"v  c #945C2E",
"b  c #995B2E",
"n  c #864E30",
"m  c #835433",
"M  c #8B5534",
"N  c #845A35",
"B  c #8C5B35",
"V  c #83563B",
"C  c #8B563A",
"Z  c #845B3B",
"A  c #8C5C3B",
"S  c #925435",
"D  c #935C34",
"F  c #9B5D34",
"G  c #925638",
"H  c #945D3B",
"J  c #9B5D3B",
"K  c #A15E34",
"L  c #A25E3B",
"P  c #97602F",
"I  c #8E6035",
"U  c #85613E",
"Y  c #8D623C",
"T  c #946236",
"R  c #9C6235",
"E  c #94633C",
"W  c #9C633C",
"Q  c #97683D",
"!  c #9C6A3D",
"~  c #8F733D",
"^  c #A26236",
"/  c #A66536",
"(  c #A3643B",
")  c #AA653C",
"_  c #A46A3D",
"`  c #AB6A3D",
"'  c #B1673E",
"]  c #B16A3E",
"[  c #AC703D",
"{  c #845C43",
"}  c #8C5D43",
"|  c #875C49",
" . c #935E42",
".. c #9A5E43",
"X. c #846343",
"o. c #8C6343",
"O. c #8D644B",
"+. c #886949",
"@. c #8C6B4B",
"#. c #946442",
"$. c #9B6442",
"%. c #946A45",
"&. c #9C6B43",
"*. c #95664A",
"=. c #9E6549",
"-. c #946B4C",
";. c #9C6D49",
":. c #8C714D",
">. c #9D7046",
",. c #92744E",
"<. c #9D714C",
"1. c #866B54",
"2. c #946B53",
"3. c #946C57",
"4. c #9C6C51",
"5. c #8E7457",
"6. c #9C7453",
"7. c #9C7459",
"8. c #987859",
"9. c #A36542",
"0. c #A56645",
"q. c #A36C43",
"w. c #AB6C43",
"e. c #A36D49",
"r. c #AB6E49",
"t. c #B26D44",
"y. c #B86F46",
"u. c #A47146",
"i. c #AB7145",
"p. c #A4734B",
"a. c #AB734B",
"s. c #A4784D",
"d. c #AC794C",
"f. c #B37346",
"g. c #B2744C",
"h. c #B9774B",
"j. c #B37A4D",
"k. c #A16F51",
"l. c #A47552",
"z. c #AB7652",
"x. c #A47953",
"c. c #AB7B53",
"v. c #A2755C",
"b. c #A47C5A",
"n. c #AC7E5A",
"m. c #B77A51",
"M. c #B37C53",
"N. c #B27D5A",
"B. c #9A7B61",
"V. c #BB814F",
"C. c #A9815A",
"Z. c #AC825B",
"A. c #B48155",
"S. c #B98354",
"D. c #B3845C",
"F. c #BA855C",
"G. c #B5885F",
"H. c #BB895D",
"J. c #9B8464",
"K. c #9C846D",
"L. c #998672",
"P. c #A78665",
"I. c #AC8463",
"U. c #A4896C",
"Y. c #AC8C6B",
"T. c #B38561",
"R. c #B98664",
"E. c #B58B65",
"W. c #BC8B62",
"Q. c #B48D6A",
"!. c #BA8D6A",
"~. c #AD916D",
"^. c #BB9166",
"/. c #B5916C",
"(. c #BC926B",
"). c #AA8F74",
"_. c #B58E72",
"`. c #AC9679",
"'. c #B59472",
"]. c #BC9472",
"[. c #BD9974",
"{. c #B69979",
"}. c #BD9B7A",
"|. c #BCA07D",
" X c #C38759",
".X c #C18D66",
"XX c #C48F6B",
"oX c #C59166",
"OX c #C4936A",
"+X c #CA956B",
"@X c #CC986C",
"#X c #C19573",
"$X c #C39B75",
"%X c #CD9A71",
"&X c #C5977C",
"*X c #C39B7B",
"=X c #CC9F7A",
"-X c #D09C71",
";X c #C5A27D",
":X c #CAA57F",
">X c #D6A37A",
",X c #AE9E85",
"<X c #B79F85",
"1X c #BA9D82",
"2X c #BBA284",
"3X c #BAA58C",
"4X c #B6A995",
"5X c #BEB29E",
"6X c #C4A483",
"7X c #CBA483",
"8X c #C7A888",
"9X c #C5AB8C",
"0X c #CCAC8A",
"qX c #D3AA84",
"wX c #DBAC83",
"eX c #D7AA8A",
"rX c #D3AC8B",
"tX c #CEB18E",
"yX c #D3B28C",
"uX c #DCB68C",
"iX c #DDBA8F",
"pX c #C8AA94",
"aX c #CCAA95",
"sX c #D4AD93",
"dX c #CDB393",
"fX c #CAB699",
"gX c #D3B493",
"hX c #D4B994",
"jX c #DCBB93",
"kX c #D8B698",
"lX c #D3BC9B",
"zX c #E2B48A",
"xX c #E2BD94",
"cX c #CBBCA3",
"vX c #D2BCA2",
"bX c #DAC09E",
"nX c #E6C197",
"mX c #CEC3AB",
"MX c #DAC3A2",
"NX c #D8C5A7",
"BX c #E0C5A0",
/* pixels */
"#X+X%X=X>XwXwX>X>X>XwXxX>XyXhXbXjXnXiXyXjXnXjXxXiXuXzXnXnXxXxXnXiXxXxXjXnXnXnXxXiXnXxXjXhXdXcXfXgX8X6X0XyXyXwXqXwX>X>XwXiXyXyX~ ",
"#X.X.X.XF.R. XN. X XH.G.6.J.`.NX6X7X[.E.~.E.E.E.=X$X(.^.E.D.D.D.H.H.D.G.E./.E.Z.D.E.E.Q.J.J.,XcX{.Q.Z.E.Q.G.D.D.E.H.D.E.E.G.(.8 ",
"!.F.N.m.p.r.g.a.) g.j.c.%.@.5.lXI.T.n.u.s.p.e.p.&.e.u.u.r.z.g.a.a.i.u.e.l.n.c.u.p.u.>.<.@.+.K.fXY.b.,.<.s.>.&.;.e.e.u.>.%.Q C.= ",
"T.m.m.j.q.e.m.j.f.h.a.d.C.8.+.0Xe.z.a.e.u.p.r.r.W r.a.f.g.g.a.0.` 9.! $.q.a.a.p.j.p.&.p.6.8.8.1XZ.l.<.>.p.p.i.d.i.u.q.! Q Q C.= ",
"T.M.m.j.q._ w.w.f.t.R W c.n.2.gX0.d.a.0.w.w.( ( 9.w.t.w.w.w.( K L L 0.L ( 0.w.r.w.w.L 0.e.v.2._.<.<.&.>.u.i.i.i.i.q.9.Q Q E s.$ ",
"D.m.j.i._ ( ` ^ ) ^ K F q.x.*.sXE p.r.W W W W F L ( ^ F K L ` ) t.y.y.w.0.w.w.t.' t.) 9.$.k.| _.&.&.i.i.q._ ( ^ _ _ W F T B &.o ",
"D.j.i.i.9.9._ ^ ^ K ) R 0.z.#.qXI u.&.T E ! Q ! a.w.! R F F R ^ ' ] t.L ) L 0.) t.y.0.0.$.k.C &X;.q.i.i.w.) ^ R ^ W R W D D &.. ",
"D.f.i.i.! ( ( K K b K b W z.*.eXY >.&.I T &.u.u.q.Q R Q W T T ( ) ) ) L L 0.) K ) b c 9.0.k.t &XQ _ i.q._ ( ^ ^ b F L T E M Q o ",
"G.V.! _ ! F J b / K F F F p.4.7XI >.x B E I ! &.Q T T v v D T ( ^ ( w.0.! J J ( ^ b F 9.&.6.r 6Xp._ i.i._ ( ^ F c ( D W H B E O ",
"C.j._ u.9.M W ( / b F F J =.=.eXB ;.B I %.I E E ! T D G T T W ( D W ! $.E H D F z F ( ! A *.1 *X;.! e.i._ ( ( ( c F z J M N #.o ",
"G.j.q.a.&.l B $.( 9.J D ..*.*.kXG $.G J W G F H 9.J J J L J L J J E $.E Y I E $.B ! ! E o.@.w 6X#.Q e.e.W W W F F v z H C Y <.$ ",
"E.d.! &.#.A m M z $.J k M Z { eX#.H M B H G J 0.9.9.L L L J G J l N B Z Z N A I B T l m X.X.w 1XZ #.;.;.B M D M M k k B l I -.$ ",
"Z.s.Q N Z A m n l H C m Z Z s sX*.C C C C G  .0...=.0.$.H S G H n i V Z f i m N B l 3 0 X.d y 3Xu Z -.-.M 6 M m l 4 n A Z o.%.% ",
"C.d.s.A r s r i Z m 6 Z Z q q 9X7.Z M V m i m A C A  .C n m n M m i Z f f f u 6 0 3 3 5 d 7 j pX< q f Z 6 5 r M n 0 M A Y %.X.% ",
"8.u.<.Z e u , r r , 2 5 e w w 2XU.X.d u , 1 < u 9 9 e 5 5 9 5 5 5 5 r e 5 , , : % + : : , q 1.4Xh q 1 q , : 2 6 2 5 5 5 9 i : . ",
"@.0 p u u p , q : i p e a B.U.vX{.j y < - ; ; y 1 7 ; ; 1 a 7 < 1 q q 1 q 1 1 5 3 3 5 : u 1.).5X8.d < e e : : 2 2 2 : + : ; X . ",
"`.[.|.tXtXtX2X|.6X8X9XaXdXlXlXlXlXlXNXNXlXfXdX9X8X:XtXdXdXfXcXcXvXfXfX9X9XdXtX0XgXyX0X0XdXdXkXvXMXkXgX0X7XrXeXeXqX*XuX7XP.U.d   ",
"J.P.~.~.'.'.'.~.}.*X}.}.}.}.}.}.6X*X6X6X{.{.[.~.[./.E.Z.J.`.4XvX3X2X`.`.`.'.'.].].Q.Q.Q.Q.Q.Q.].[.'./.Q.E.!.!.R.!.E.#XQ.v.P.j   ",
"P.G.G.A.A.d.s.s.d.c.a.p.p.p.p.p.l.<.l.x.<.6.<.>.z.M.a.;.6.P.U.sX[.Y.I.T.C.x.l.c.c.c.z.z.c.z.z.l.x.6.l.s.a.d.z.a.z.c.l.s.<.b.%.  ",
"^. XV.V.[ _ _ _ w.w._ ( ( ) w.w.w.9.q.e.e.w.p.i._ g.f.p.Z.Z.7.sX!.E.N.T.N.q.( ( g.w.w.t.g.g.g.a.u.>.u.p.p.a.p.i.r.m.q.;.&.x.s.. ",
"H. Xh.[ / _ ` ` t.t.` ) / ) ) ' f.] w.i.w.g.g.t.] y.` w.N.N.;.sXN.N.N.N.g._ ( ` t.' ) ) ` t.y.t.u.u.i.i._ i.i.[ ` m._ i.! p.c.O ",
"XX Xj.` / / / ` ( ( K F K L ) w.] ` ` [ ( ( ) b / ` / / k.n.} 7Xv.g.g.0.^ ! ) w.` ` ' / / ) w.w.i.w._ ` [ ` ` ` / f.` 9.T _ j.# ",
"#XF.a.q.$.W 9.! J J J J J 9.0.r.h.[ [ d.u._ ( v P R ! u.e.b.d }.>.u.e.E I R [ [ _ [ ` / ( _ _ _ i.w._ w.` ` ) _ / ` ( w.F ( 9.O ",
"Q.N.;.$.$.;.;.$.$. . .H H  . .$.[ _ ! [ _ ! T v P P Q >.Y 8.g 2X@.6.s.&.Q Q >.! P ! _ _ R R ! W q.w.i.i.i.` / / _ ( _ _ E ! W o ",
"Q.p.;.;.Y Y ;.#.E *.#.#.H A #.$.R ! ! ! Q &.E I u.T I >.7.1.h 2X:.o.,.%.E >.%.>.W ! q.! ! u.e.&.Q 9.$.! 9.q.( D W W W Q G H $.O ",
"'.x.&.&.Q E #.&.E E H H H E $.;.Q T T Q #.E E I T E E Y 2.| h 3X:.o.-.o.N E T E $.$.&.! &.e.&.$.$.$.$.$.&.0.! E W Q H #.G %.#.+ ",
"Z.d.! Q R T T R T D B D F W W W W G D E H H G H J e.#.#.=.3.h aX2.} #.} C H H E $.J G $.0.0.0.=. .A } #.#.H A B B o.A A } -.*.+ ",
"C.f.! P R v x R v v v b T W F F J M C H  .C M H $.r.H  .2.| h pX2.V C V V C M G J S S ..$.$...*. .Z Z A A Z N B m A o.} } 7.*.& ",
"<.A.q.R T z z W z v J W T J J J J M M A A m M C $.r.$.=.*.t h aX3.V V C C A M G H G J ..J S G  . .Z Z } Z m m Z i Z o.} *.6.O.& ",
"U Q s.s.u.E l C l M A H A J H H A M i N V m l N n $.H %.s , g fX3.e e r m C M C l N G H B C C #.C V i M m i p 0 0 i } V Z { , + ",
"y N o.2.O.o.{ r i t i V Z V { V 9 9 5 9 r u 0 0 & * & 4 : y 5.pX5.q - % > : : 5 * 4 0 0 6 m m N 4 5 2 4 5 6 4 2 2 > r 5 5 e X X ",
"j 1 1 < ; u g s s e , , w a w w < 1 1 < 1 y 9 9 0 0 % > p J.2XlX2X:.d 7 > > & > & 3 3 & ; 1 , @ @ 2 @ & 3 6 4 & 2 & 6 @ 2 : . + ",
"J.~.}.2X2X8XgXgXgXgXsXfX4X,X5X4XvXfX3X{.|.|.|.6X:X;X0XhXhXhXhXlXyXjXjXjXjXjXnXbXuX:XiXBXNX5XmXcXvXxXqX#X;XqX>X=X=X=X:X#XOXE.Y # ",
"~./.[.'.'.[.[.#X#X*X}.6X<X,X4XcX3X2X).U.~.Y.Y./.;X;X;X7X6X;X;X:X(.(.E./.].(.$X^.(./.;X[.`.L.4XmXpX;X!.T.W.W.D.F..XW.D.C.E.I.X.# ",
"[.!.R.N.N.T.N.z.m.R.N.N.I.B.U.aXP.I.v.6.v.x.s.z.u.>.e.p.s.;.e.e.d.a.( 0.r.p.j.a.g.m.c.;.,.j K.vX'.E.Z.c.Z.z.p.a.a.p.;.&.s.C.>.# ",
"#X Xm.r.z.r.w.w.w.y.r.r.l.3.| sX4.l.e.e.e.q.0.w.w.i.w.t.a.r.r.w.w.t.L ( w.w.h.f.f.y.9.J #.{ 3.aXn.E.D.D.m.a.p.a.( 9.W T Q C.6.* ",
"XX Xy.t.w.t.` ' ' ' ) t.j.v.} sX=.a.a.0.r.t.w.t.` t.] t.t.w.) ) ) ' ) ) ' ) y.y.y.] / F =.} | sX%.D.W.s.0.p.i.r.! 9.( ! W s.z.$ ",
"oX Xh.t.` ` ) ] ' ) ) w.p.n.C sX=.z.g.r.i.i.t.t.` ] ` ] t.f.t.` L ' ) ) ) K ) ) ] ` ) F H C | sXA c.A._ T ` w.` ( w.( q.T ! a.* ",
"^.V.i.w.[ ! ^ ^ ` R ) _ E b.u 7X%.s.s.9._ _ [ i._ R ^ R ^ _ _ ( ) ` ^ ( W F K F ^ b T E m i d dXA a.a.T F ) ` ( ( ( F 9.F W u.# ",
"^.j._ ! ! P P P _ P [ _ Y b.a 8XY <.<.Q Q ~ ! ! [ [ ! T T ! ! T _ / D T W E ! D R x B Q Z f h 8X#.p.9.F F ( ( ( ( ^ b _ F W w.O ",
"G.d.q.! E ! E v _ v P E U C.a 1Xo.Z.%.I Y I &.>.u.&.E E W E #.Q &.Q E H #.#.A E E T &.N { g a pXA p.W W _ F ` ) ) b b F W D e.o ",
"E.d.p.p.&.E W T G F W I U 8.a 8XU 8.*.Y %.I E ;.E D B E #.E #.*.W E Y  .} o.Y A B N #.i { h h pXY e.J D W F J K F K ( ! J z &.O ",
"E.a.r.e...J J 9.S L L M } 3.s pX-.6.#.#.=.M B $.$.J H ..$.....*.H .. . . .}  . . .M E V { t h aXZ #.B B J D J F c F W $.H B #.o ",
"E.a.0.J G ..9.L L L S n  .3.h aXb.l. . .A M M J ......=.0............... .}  . . .M C } | h h aXV Z A H E G H W G J J E &.;.$.  ",
"N.N.j.W G $.0.J J S c C 4. .h sX7.4.%.B M G M M M S H ........$.....$.#.} } }  .H m C Z } s 1.aXf i A A M M M H B H A $.4.b.o.  ",
"l.N.N.p.H H ..S D c J ..*.h h 9X7.-.*.N Z #.C M C B C H } C } } G B A Z V s f m M 5 0 i e q h 2Xf : r p r n r C 6 M Z o.} o.i . ",
"-.E %.%.B l M l z l E Y { a j 4XU.,.:.U I U m N m m m Z V r r i i 0 0 9 9 u y 9 5 : 7 7 < < j ,X+., 5 5 : r 5 M @ 6 r i 5 e +   ",
"+.3 * 0 0 0 0 4 0 & 0 : u +.U.fX}.,.X.p 7 9 3 p 0 9 9 6 e e u s 9 4 > 7 7 7 7 > > > > 9 a d 5.9XU.f u , @ 2 @ @ 5 4 5 5 , q X . ",
"'.!.].[.$X*X7X7X&X#X&X*X7X8XaXrXtXyX0X0X6X6X7X7XeX:XeX*X8X8XfX9X8XyXrX0XrX7X*X*X#X#X#X[.*X1X8X0XrXyX0X8X7X7X7X7X7X:X;X[.C.8.P.U ",
"'.].].].#X#X].].=X&X#X].].&X#X&X$X$X$X}.}.[.*X#X=X#X$X[.[.{.<X9X}.}.(.Q.#X_.!.!.].#X].!.Q.T.Q.Q.].[.[.]._._._.!.!.R.G.C.8.6.5.9 ",
"I.D.D.D.n.c.l.s.n.N.z.l.;.k.k.k.<.>.%.<.<.4.p.;.a.c.z.l.v.8.8.1X/.G.Z.n.D.n.c.s.z.z.s.p.;.;.&.>.>.<.s.l.l.l.l.>.s.c.x.C.x.n.6.% ",
"_..XF.M.d.q.e.e.p.e.&.$.$.W $.&.u.u.u.s.l.s.l.p.e.d.q.a.<.6.o.;XZ.D.A.c.M.a.9.! a.e.! W W W u.a.&.&.e.e.e.e.e.e._ u.s.d.x.D.b.& ",
"$X XS.j.i.9._ 9.w.0.9.( W W 9.9.! ( _ >.9.$.&.9.w.j._ i.p.Z.U :Xd.A.j.i.i.q.( W g.w.( W F T ( _ i.i.q.0.0.i.r.q.P _ [ ! >.c.n.4 ",
"#XV.i./ / ^ R ^ R ^ W F F F F ^ R / i.i.q.! _ ` ) ` ^ ( ! c.i #Xd.S.j.w.( / ^ / K K ^ ^ F F b b _ ` w.( ( ( ) _ P ! P P T u.u.x ",
"+Xm.) ) i.) ( ^ R ^ ( F F F R ( b P W _ ! W W F / / ) ( ! x.A OXd.V.j.( ( ( ( ) F ^ ( ) _ ( ( ^ [ i.` ( ( 0.) ) P / R R v E >.= ",
"#Xf.( ( w._ R R F J ( ( F F J ( R R W ! q.9.( J F F ` T J p.Z !.d.j.d.( _ 9.( K K K ^ ( ^ R R W ^ / ( K J J L W [ / R R I E ;.* ",
"$Xd._ 9.( 9.w.W ( ! ( $.9.( W J D W T B $.e.$.F 9.F ( D H p.Z _.l.A.q.W W W 9.w.K F F F ( 0.( F J W ( ( 9.9.W J P P T v I Y o.o ",
"*XA.a.i.! &.e.W W W ! &.&.$.E J v E D E &.;.$.H D v W H #.v.{ '.n.A.&.E W W ( T T G G W W ! E T ! ( $.$.J ..J B P ~ T x x Y @.# ",
"#XA.s.u.&.&.! E H E E #.Q $.E H E E Y Y %.#.B B D D E H %.8.g _.x.l.E D E J E H E D J &.&.$.&.0.W $.$.$.#.$.J H D T I l N o.-.% ",
"/.A.u.q.>.u.&.Q B J E $.&.;.$.E ! ! A Y #. .B  .$.W W E Y 6.X.'.x.x.E E Q E $.$.H D H $.$.H D %.B H W  . .#.#.E Q B B I Q U -.& ",
"[.F.d.u.d.d.p.e.Q &.&.&.&.;.! T E Q I E %.#.E $.J $.W E %.6.+./.C.D.p.;.&.W q.p.9.&.9.u.! B I T E ! &.&.$.$.$.E Q Q Q T %.%.,.* ",
"$XoXA.d.A.D.d.i.u.i.p.i.9.&.&.D T ! &.&.p.;.E E B _ ! &.<.C.,./.Z.oXG.s.e.W i.p.q.r.p.a.u.u.! ! u.s.p.e.&.! &.! R u.d.T >.x.x.+ ",
"(.oX XH. X XA.S.S. XS.A.M.A.m.p.a.A.A.c.c.c.p.q._ j.d.d.C.C.<./.A.@XoXS.m.j.M.M.a.j.g.p.i.d.A.d.d.A.d.s.>.e.u.u.A.S.S.s.d.c.n.$ ",
"G.@X@XoX@X@XoX+X%X-X-X+X@X-X%XoXH.OXoXD.XX$X+X+XH.+XF.A.C.C.6./.C.:X>XOX(.oX-X+X+X-X+XF.D.oXoXW.^.OXOX.X^.OX@X-X-XH.H.G.W.c.l.4 "
};
