/* XPM */
static char *d4b7edec5bdb4a5d863aa923ba2f4f2d2FIYdtxAfGqciPak[] = {
/* columns rows colors chars-per-pixel */
"64 64 209 2 ",
"   c #275700",
".  c #335F02",
"X  c #325E16",
"o  c #315D1E",
"O  c #356300",
"+  c #396602",
"@  c #3D6B02",
"#  c #39650C",
"$  c #3D6B0B",
"%  c #3E7201",
"&  c #39671D",
"*  c #3A671D",
"=  c #355F27",
"-  c #366224",
";  c #3A6424",
":  c #3D6A22",
">  c #3B652B",
",  c #3E6A2B",
"<  c #416E00",
"1  c #426E0C",
"2  c #447401",
"3  c #497604",
"4  c #497706",
"5  c #4C7D02",
"6  c #45730A",
"7  c #4D7B0C",
"8  c #517C02",
"9  c #517E0A",
"0  c #436713",
"q  c #476F17",
"w  c #4A6D16",
"e  c #4C7515",
"r  c #4C7B11",
"t  c #4D731B",
"y  c #537A14",
"u  c #52761C",
"i  c #557918",
"p  c #547B1C",
"a  c #426E27",
"s  c #426D2B",
"d  c #447227",
"f  c #44722A",
"g  c #49752D",
"h  c #4A7A2E",
"j  c #557B23",
"k  c #587B23",
"l  c #436D32",
"z  c #467231",
"x  c #4B7532",
"c  c #4C7A34",
"v  c #547D3B",
"b  c #4F8204",
"n  c #4E800B",
"m  c #538402",
"M  c #588600",
"N  c #578903",
"B  c #5B8D02",
"V  c #53830B",
"C  c #59850B",
"Z  c #568909",
"A  c #5B8C0C",
"S  c #5D9104",
"D  c #5D9A03",
"F  c #5D920D",
"G  c #4F8211",
"H  c #538312",
"J  c #558A11",
"K  c #5C8C13",
"L  c #56831A",
"P  c #5D8D1B",
"I  c #5E9212",
"U  c #5E901A",
"Y  c #608F0A",
"T  c #639404",
"R  c #6A9704",
"E  c #659A04",
"W  c #6A9C05",
"Q  c #63950B",
"!  c #6A970B",
"~  c #659A0B",
"^  c #6B9C0B",
"/  c #719D03",
"(  c #729F0B",
")  c #618F13",
"_  c #628E1F",
"`  c #639413",
"'  c #6A9714",
"]  c #659A13",
"[  c #6B9D13",
"{  c #63931A",
"}  c #6B971A",
"|  c #669A1A",
" . c #6B9B1B",
".. c #729E12",
"X. c #719D1D",
"o. c #67A107",
"O. c #6CA205",
"+. c #66A20C",
"@. c #6DA30C",
"#. c #6EA90B",
"$. c #72A306",
"%. c #72A40D",
"&. c #79A70E",
"*. c #74AA0D",
"=. c #79AC0E",
"-. c #76B20C",
";. c #7CB00F",
":. c #6DA213",
">. c #6BA617",
",. c #6EAA11",
"<. c #6EA21B",
"1. c #73A413",
"2. c #79A613",
"3. c #75AB13",
"4. c #7AAC14",
"5. c #73A51B",
"6. c #79A71A",
"7. c #75AA1B",
"8. c #7BAD1B",
"9. c #76B114",
"0. c #7DB215",
"q. c #76B11A",
"w. c #7DB21B",
"e. c #7EB91B",
"r. c #578124",
"t. c #5D8924",
"y. c #5E8229",
"u. c #588839",
"i. c #62852C",
"p. c #669523",
"a. c #689623",
"s. c #6C9C22",
"d. c #64912C",
"f. c #6D9D2B",
"g. c #719E23",
"h. c #658C32",
"j. c #6A8F31",
"k. c #73963A",
"l. c #6BA025",
"z. c #74A423",
"x. c #7CA623",
"c. c #76AB22",
"v. c #7CAC23",
"b. c #73A32A",
"n. c #76AA2A",
"m. c #7CAB2C",
"M. c #7EB322",
"N. c #7EBC22",
"B. c #7DB12A",
"V. c #7FAF34",
"C. c #7AA738",
"Z. c #5D8D42",
"A. c #7FA446",
"S. c #80B00E",
"D. c #81AF15",
"F. c #81AE1C",
"G. c #81B316",
"H. c #83B916",
"J. c #82B41C",
"K. c #88B61E",
"L. c #84BA1C",
"P. c #8ABC1D",
"I. c #83AE23",
"U. c #83B423",
"Y. c #89B523",
"T. c #86BA23",
"R. c #8BBC24",
"E. c #84B42A",
"W. c #8AB62C",
"Q. c #86B92A",
"!. c #8BBC2B",
"~. c #91BD25",
"^. c #92BE2C",
"/. c #81AF31",
"(. c #83B333",
"). c #8DB733",
"_. c #86BA34",
"`. c #8CBC32",
"'. c #8BBE3B",
"]. c #92BE33",
"[. c #91BD3A",
"{. c #8CC11F",
"}. c #90C11E",
"|. c #86C225",
" X c #8DC124",
".X c #87C22A",
"XX c #8DC22A",
"oX c #91C325",
"OX c #95C826",
"+X c #93C42B",
"@X c #9BC52E",
"#X c #94C92D",
"$X c #99CB2E",
"%X c #8EC232",
"&X c #93C432",
"*X c #99C534",
"=X c #95CA32",
"-X c #9BCB33",
";X c #93C23A",
":X c #99C53B",
">X c #9BCC3B",
",X c #9DD134",
"<X c #A1CB34",
"1X c #A2D33B",
"2X c #88BA40",
"3X c #94C644",
"4X c #95CA45",
"5X c #A0CD44",
"6X c #A8D853",
/* pixels */
"j 2 9 K s.{ b.m.m.) m ` } ) ) } ` 5.8.1.U.~ E 8.w.7.3.q.N.c.>.F <.<.Z b P U K b 4 K | { ) 9 V ) | z.V.V.s.J J { b.b.{ 7 f.d.e o ",
"u 5 } z.B.<.] [ 5.Q M M A Q ' X.Q M  .5.<.T ] :.E.B.B.c.>.I ] >.7.>.] Z I { U { m ' 5. . .' ) ) X.5.c.z.s.` K K K } 5 4 L t.$ o ",
"r b B.(.E.] S T ! 6.2.! ! I.8.! } Y E./.5.! [ ] >.c.v.7.I D I >.B.N.v.S m F A [ 5.6.[ [ x.v. .~ [ 1.6.<.` F A A 5 ` C V < 6 + l ",
"L F _.B.7.~ T 1.XX&XY.%.&.^.].I.I.6.[.W.n.1.[ [ >.7.c.c.>.F >.q..X.XQ.~ S Q B [ Q.Y.4.1.8.Q.v.[ 1.w.v.[ Q ` ] ` m ` | { 7 6 $ z ",
"t.| 3XB.>.+.1.T.+XK.D.2.F.~.W.Y.~.Y.].F.`.Q.8.w.;XQ.w.,.~ D +.N.e.|..X7.:.c.^ :.R.+XL.4.8.J.q.3.R.L.1.! 1.B.z.A ~ A ` U { G 6 o ",
"r.I >.c.c.7.w.w.4.%.4.@X*XY.Y.<X~.oXP.P.R.R.L.L.L.e.-.#.#.9.e.{.{.*.q..X=X!.8.W &.G.G.=.*.3.q.%X XR.L.U.Q.Q.E.v.[ ] Q K p.p.6 & ",
"r.Z J ] <.E.!.M.J.J.R.@X^.Y.W.<X~.}.}.P.OXOX{.P.H.-.O.O.-.e.{.{.9.#.3.T.#X&XR.J.P.oX{.;.*.4.R.>X X X X+X&X;X!.Q._.~ b b I G $ , ",
"j J J N F 7.T.3.4.T.+X*XR.K.Y.^.}.~.P.P.OX$XoXR.e.*.O.#.-.L.e.-.e.9.,.3.4.J.J.4.=.H.{.P.P.w.w.|.R.oXR.R.!.&X&X%XE.7.| >.| n % h ",
"t K } ` N S ^ W %.w. X+X!.F.8.J.Y.T.4.1.J.Y.U.U.1.3.w.w.9.4.3.q.9.#.+.D W 6.U.G.R =.H.}.{.L.3.3.H.G.D.3.8.Q.Q.Q.[ Q._._.n.U G f ",
"j H a.g.` S ^ %.%.$.0.R.R.J.6.F.4.v.3.1.6.8.5.5.[ 6.Q.Q.U.7.3.1.9.#.,.#.:.J.K.D.$.S.G.H.L.L.q.e.=.4.=.%.2.8.6.[ E B.c.c.n.l.U : ",
"j 4 ) g.5.6.U. XJ.=.*.G.T.J.w.U.4.Y.Q.U.E.v.6.5.5.6.I.Q.Q.Y.4.@.,.,.w.N.w.U.F.( H.P.H.S.J.w.q.w.G.K.K.J.J.U.1.T T :.F >.c.J J h ",
"j 9 A  .m.Q.&X+X XH.0.4.0.0.4.3.4.|.#X XR.w.8.w.4.6.w.U.+X X0.$.D D >.M.U.W.Y.4.P.P.K.H.L.9.:.1.=.~.*X+XQ.Y.8.^ ~ :.S :.I % G u.",
"u y ' X.x.Q.!.J.~.oXR.2.4.4.*.E 3.R. XR.w.3.4.T.w.w.J.R. XP.0.*.#.+.@.7.8.M.D.2.~.~.F.2.D.1.1.1.&.Y.@X!.J.F.I.6.M.1.5 m Z % J Z.",
"i.C x.).^.^.J.J.K.Y.2.D.2.( D.4.4.Y.U.q.U.v.v.!.!.Q.M.J.L.0.-.*.w.|.&XY.U.U.8.U.D.K.D.2.2...U.F.U.U.U.J.8.8.J.Y.8.7.F m % % 6 z ",
"k.X.[.5X*X!.2.( D.F...I.W.Y.^.~.T.Q.v.5.1.5.c.Q.7.1.@.@.#.#.-.-.#XR.+X!.Y.U.....D.I...Y.Y.Y.].W.E.W.I.8.1.( &.8.U.1.B C 2 7 $ z ",
"i.} /.W.U.8.( ^ 2.F.F.Y.Y.K.Y.Y.Y.U.J.1.~ ^ 3.7.7.3.3.3.9.e.{. XXXT.>X-X4.^ ! ..! ....I.Y.I.Y.Y.Y.W.I.6./ R W %.&XE.X.b.p.t.p u.",
"k ) n.E.Y.+X!.T.1.U.!.U...( 2.F.J.4.U.J.1.1.3.E ^ @.#.9.H. X|. XJ.D.*X+X( ( 2.8.T ^ 1.6...R 1.U.6.I.Y.F.2.%.&.2.+X!.E./.b.p.p x ",
"u 5 ' 7.Q.=XR.8.4.U.^.I.1.( 2.8.3.1.T.R.U.U.w.@.O.O.@.3.L. X{.|.T.3.Y.F.1.W.].U.6.6.I.U.4.( 1.U.2.F.Y.Y.R.K.L.T.J.Q.).(.b._ 7 : ",
"k b Q >.U.=X+XT.w.M.Q.M.U.T.8.4.=.4.H.R.|.+X#XJ.0.0.-.-.0.{. X{.oXK.^.D.2.^.-X`.W.8.U.U.Y.Y.6.4.2.D.U.~.+XOX#X+X8.U._.B.b.H 4 & ",
"k 2 m S ^ 3.9.J.J.6.8.3.I.`.8.4.J.J.J.0.P.+X#XXXe.L.0.#.-.0.{.H. X@X*XJ.2.J.W.!.U.2.8.5.U.XXw.4.J.J.G.J.P.oX+X+X2.^ 5.X.} < O X ",
"t.b >.7.7.3.#.w.q.1.4.:.1.!.J.U.P. X0.*.G. XP.{.L.oX|.e.-.-.e.P.$X+X~.F.8.F.1.6.I.1.8.%.3.!.J.J.~.J.=.=.G.P.P.R.4.S Q [ | + O & ",
"r.I ` ,.3.+.*.3.7.8.7.v.T.Q.Q..X X{.{.*.$.G.0.L. XoXOX{.P.L.L.L.J.R.4.=.2.J.!.Y.8.Q.3.6.!.Y.R.!.R.oXP.*.$.G.T.w.M.1.m.m.b.) @ & ",
"d._.B.>.q.*.o.o.@.q.7.7.Q.v.^ 4. XH.{.H.0.P.-.0. X X X|.|.L.e.w.R.+XJ.3.4.w.Y.6.%.B.I.Y.!.J.Y.K.P.P.{.P.H.J.4.3.Q.v.c.b.b.s.H d ",
"h.4XE.[ e.T.*.o.@.U.7.7.`.1.B %.G.0.P.{.{.P.*.O.P.|. X|.T.e.N.T.+X+X4.*.4.w.U.1.~ 4.!.&XR.J.!.R.G.0.G.OX+XJ.3.5.v.c.` { s.f.p.h ",
"p B.c.>..X=X|.9.4.M.6.5.v.[ B %.3.&.0.R. XG.*.O.L.P.|.w.:.@.M.#X X|.9.3.J.R.Q.4.1.8.!.*XJ.8.~.K.=.*.4.|.XX4.@.:.<.| 5 V U U P f ",
"e N [ Q.XXXX#XJ.w.1.1.7...^ ..1.3.=.0.P.P.4.=.0.0.3.3.@.T ~ 7.Q.e.e.*.9.|.#X=XQ.Q.Y.Y.T.2.%.F.2.0.0.J.R.U.1.Q A ] K 2 V L 7 7 : ",
"e 2 F %XXX!.#XT.U.^ X.8.1.6.Q.6.w.J.J. XT.3.L.|.w.@.T +.:.:.<.,.,.9.#.9.|.XX%XT.!.Y.6.D.D.D.Y.D.0.G.R.R.U.5.Q Z C 5 2 H G 6 6 : ",
"e m ~ XX#X!.#XR.R.6.[ 5.v.`.&XY.8.Y.T.R.J.4.L.R.T.3.^ >.7.5.<.<.o.#.o.9.w.q.N.3.Y.Y.( 6.~.W.<X^.G.J.R.!.Y.7.<. .U m n r r 7 6 s ",
"y [ 5.U.&X+X XL.!.U.~ Q v.;X;XXX4.T.J.!.L.3.w.0.T.4.3.7.5.<.] >.#.9.9.w.w.3.3.@.U.Y.1.4.].].].^.J.J.T.R.U.7.7.B.z.| | b 7 n @ & ",
"i (.!.+X-XG.0.{.T.!.8.[ [ 7.5.[ U.7.L.w.3.*.*.q.3.@.@.:.:.>.7.<.3.e.T.w.w.,.o.:.M.Y.8.[ ..6.I...K.G.0.w.4.3.3.U.*.q.B.:.F I K u.",
"i ).:X!.R.H.P.P.#XXX8.:.[ [ <.v.M.3.w.U.|.T.o.E 3.@.@.:.^ >.c.7.q.T.w.3.1.@.@.@.1.1.5.I.F.X...5.4.4.0.J.R.L.q.*.L.L.q.+.F F b : ",
"i I.&X+XR.P.oX{.R.L.8.7.7.~ ~ 7.3.q.|. X#XT.O.*.e.q.7.q.7.7.7.7.M.Q.T.4.w.L.T.T.%.W 1.U.U... .8.%.0.R.+X!.J.3.O.T.T.w.7. .` L d ",
"e M 6.=X$X XoXoX3.3.3.6.6.~ T [ 1.Y.#XY.!.L.*.|.e.q.M.N.N.c.>.] ,.3.*.%.w.XX|.R.W 1.3.1.6.v.v.6.4.J.+X!.R.U.:.S W :.5.<.` H r f ",
"e 2 ] %X#X#X XH.0.J.4.1.1.1.^ ( w.T.T.4.L.L.3.R.3.@.,.q.q.q.>.+.o.@.E O.L.T.0.*.=.J.4.( 1.Q.U...J.U.U.8.B.Y.3.S S ~ ] } L 7 $ - ",
"p C 7.M.w.#X X*.K.+XT.8.U.U.4.( 2.T.R.4.4.3.$.T.w.3.,.7.>.+.>.+.3.@.O.3.R.R.4.$.R.R.J.F.F.U.w.%.*.T.XXJ.1.1.q.v.~ S Z K P t $ - ",
"i.s._.c.3.P.H.0.R.#X+XU.Y.R.D.( 2.K.@XK.3.%.%.J..XT.N.N.+.D +.,.3.3.o.0.|.H.4.G.$X+XR.T.Y.U.8.3.%.R.+XY.1.1.U.`.] B 5 5 r 1 # = ",
"h.b.3XQ.4.w.w.OX+X+XL.2.4.D.D.D.~.K.~.K.F.T.J.4.R.T.%X.X,.D +.N.!.N.w.|.+XL.G. XoXoXP.4.3.J.w.3.R.P.K.T.T.U.w.8.7.[ A V 6 + # , ",
"h.2X'.E.M.XX0.#.L.L.J.3.&.%.F.+X~.~.~.Y.~.R.U.T.T.q.q.N.q.9.N..X|.L.T.=X-X XJ.$.K.P.D.&.%.$.w.#XP.oXP.H.+X+XU.Y.Q.E.6.V % e t > ",
"r.b.n.<.XXXX0.O.0.P.J.J.J.D.K.-XP.@X~.~.@X&X.X!.R.3.#.,.q.e.|.|.w.M.!.#XR.R.P.G.K.K.H.G.J.0.T.$X}.}.{.P.oXR.J.&X1.8.z.N @ 6 e > ",
"t V ] Q =XT.=.*.4.K.XX^.R.G.J.oX~.~.~.Y.+X+X+XXXM.3.@.,.q.e.N.q.q.q.q.4.3.D.P.D.D.P.R.P.R.J.w. XP.}.{.oX+XJ.D.+X%.T S ` m @ $ , ",
"q 2 Y 5.Y.3.$.$.O.0.R.XXR.J.=.4.K.K.4.2.J.R.U.J.1.4.w.q.*.9.w.3.N.>.@.D R 4.J.&./ D.K.~.|.J.*.;.G.G.D.K.~.2.%.K.4.B B X.s.7 < ; ",
"t 4 g.:X6.O.O.W O.4.J.L.R.J.4.0.D.D.&.%.2.4.1.1.^ 4.|.R.9.=.9.o.q.7.>.@.1.J.K.&./ S.K.K.R.L.9.J.G.D.( 2.J.%.^ 4.3.1.7.x.g.a.y ; ",
"w 5 x.6XF.3.*.$.L.T.J.q.L.T.w.e.=.H.Y.J.U.J.1.%.%.3.L.!.R.L.0.O.+.>.M.B.F.Y.K.S.D.K.H.D.0.L.w.L.J.K.F.F.Y.1.T T W 1.U.m.g._ _ x ",
"w C m.:X+XL.0.*. XXXR.4.q.4.3.0.4. X+X XR.J.8.F.4.1.w.|. XP.0.$.D +.7.T.U.F.F.D.~.@XK.D.0.0.9.q.6.^.].].).1.B ! ^ ! 5.v.{ 9 9 v ",
"i.} z.6.*XU.=.$.J.R.R.w.q.3.%.@.3.T.XXU.J.8.q.Y.w.4.J.XXR.L.e.0.>.~ ^ 3.w.U.D.6.K.~.J.J.w.4.o.o.2.`.].W.I.5.5.Q.8.M.B.[ C 9 7 ; ",
"k X.` 1.w.=XJ.4.U.J.8.7.4.6.6.4.8.U.U.M.8.8.T.%X#XJ.U. XJ.0.;.*.J.XXoXL.J.J.G.J.J.F.3.3.7.4.7.7.8.U.I.v.v.] ..).;Xv.<.b.A a.O a ",
"k.m.[ >.1.4.3. X1.1.1.6.8.U.Q.&X!.`.B.3.:.>.M.!.R.q.0.L.*.#.#.-.OXOXoXK.K.J.&.W 4.F.8.7.8.!.%X%XQ.`.Q.5.[ X.7.B.] Q <.c.m <   g ",
"A._.B.4.@.@.*.XX8.w.I.5.....3.M.U.E.M.7.^ ^ @.3.w.9.w.P.0.0.{. X{.P.$X$XG.%.%.%.%.8.6.^ ~ 7.Q.M.B.U.I.5.~ ` [ Q [ B N <.C.f.H a ",
"j.(._.U.3.9.4.4.4.v.I.6.^ ! ( 8.7.v.M.w.7.3.:.@.O.$.9.L.L.L. X XG.0.oX,XJ.3.L.U.9.B.M.^ D ~ :.:.1.1.v.Q.5.Q B M F ~ ] | n.b.f.x ",
"i ' v.B.M.T.R.3.%.7.U.E.6.1.1.6.4.M.w.B.U.T.R.R.3.9.0.L.{.{.{.{.P.=.w. XT.!.XXT.q.4.7.:.! D T >.^ [ U.`.v.:.X.~ :.7.7.N I b P g ",
"i 5 Q 5.T.U. XU.%.8.Q.].!.8.1.1.4.4.T.!.XX#X#X#X X XP.0.P.{.{.{.OXT.T.|.w.J.R.N.4.:.:.:.Q S S ~ ! 1.v.] Q z.Q.B.&X7.T b b 5 6 : ",
"p 5 | 7.U.J.!.J.! @.8.`.`.W.J.J.8.w.J.T.|.+XR. X0.{.0.*.;.H.H.{.XX#X%XJ.#.@.3.M.M.8.3.1.>.>.:.<.! 5.^ m M :.T._.v.~ <.m b % @ , ",
"j K E.v.U.U.T.( 6.1.1.8.F.8.F.U.+XR.J.4.0.J. X+X0.OX{.-.S.H.G.P.#X=XR.3.:.3.3.7.7.4.7.[ >.4.v.7.1.7.! N T [ 8.!.1.>.`.<.F U % f ",
"t z.'.B.Q.M.@.3.&X`.1.[ 8.8.U.U.R.!. X4.W 4. XH. XOX$X XP.H.H.H.e.|.T.3.@.@.@.3.q.w.3.7.Q.E.7.8.Q.U.6.B ^ 8.!.M.q.3.7.>.l.s.7 & ",
"y.(.4XB.7.3.E T Y.=X].].!.U.U.Y.R.L.T.R.G.G.J.=. X X{.P.H.P.P.H. X Xe.q.q.3.@.W 1.w.U.Q.%X!.Q.T.Q.Y.W.3.1.E 1.w.T.J.T.<.` J 7 c ",
"t V.6XV.B S S T ~ Q.].].U.( 1.4.K.=.J.+X+XH.=.$.{.oXoXoXoXP.{.P.=X|.9.3.L.T.3.@.T @.T.&XY.U.Q.!.T.4.w.8.Q.4.3.%.U.w.B.<.Z 6 @ z ",
"j { m.6.:.8.^ B 1.Y.Y.E.6.! ^ %.2.&.G.#X+XJ.$.W G.oX,X<XOXP.R.oX+XT.*.$.T.XXT.J.%.4.^.@XJ.F.Y.Y.8.*.3.4.#X=XR.O.T.3.7.5.p.J $ : ",
"t 5 U z.Q.%X4.T =X:Xv.6.8.2.( W $.J.+X+X+XJ.4.G.4.H.OX-XOXR.oX$XJ.H.4.0.R.#X+XR.~.K.^.R.&.%.D.D.=.0. XT.#XR.XXL.w.E ~ Q | L $ - ",
"0 2 ` n.Q.Q.1.4.5X&X7.v.!.!.U.%.%.+X1X-X+XR.R.@XR.J.D.T.+X$X$X-XL. XoX+X-X-X+XoXOX~.Y.F.D.D.K.K.G.G.+X$X#X4.R.,XL.@.S b 4 % . o ",
"u 2 5 Q _.`.1.^ &X&XU.Q.1X>X-X&Xw.-X1X+X~.T.R.-X-XJ.%.J.+X+X+X@XR.+XoXoX$X$XR.K.@X@X~.~.@X*X<X<XP.G. XOX-X0.H.+X Xq.7.A n r $ - ",
"t V M B I.W...6.I.^.W.~.*X+X*X<XF.&X@X^.~.G.J.@X-XY.2.J.Y.U.K.R.^.!.J.w.~.R.G.&.R.^.~.Y.<X].~.~.G.K.$X+XR.2.G.J.J.4.v.| U t.e > ",
"y.{ 8.!.D.K.^.I.F.W.I.~.*X~.Y.^.^ R J.-XP.P.oXR.U.J...E.!.^.T.4.B  .I.&X+XD.%./ R R R K.Y.Y.^.I.R 2.Y.!.Y.W.Q.1.m 5.z.(.C.y q , ",
"w Z 7.!.K.Y.)./.I./.I.Y.@X<X]...^ I.+X$X$X~.D.!.W.[.m.I.x.W.U.[ 8 g.(.E.8.8.J.2.1.R T ..F.).[.Y.8 ..[.:X).^.I.! T 5.v.n.t.+ O > ",
"0 V z.Y.I.I.I.} 8 } W.W.I.].).8 Y U.^.~.oXJ.5.x.I.) < L g.m.' m 2 ` z.F B [ 7.1.B 8 Y 6.X.X.v.! M M ! W.Y.B m ( 1.M M K { r.$ = "
};
