/* XPM */
static char *_fdc06933d214605f2e9133c2147a11fSc4CfUrNGcAVUxUb[] = {
/* columns rows colors chars-per-pixel */
"64 64 254 2 ",
"   c #1B142A",
".  c #351734",
"X  c #102331",
"o  c #24433F",
"O  c #0D1C4C",
"+  c #261F46",
"@  c #1B2959",
"#  c #153051",
"$  c #292647",
"%  c #253B48",
"&  c #2E2B57",
"*  c #253757",
"=  c #383459",
"-  c #18336A",
";  c #263867",
":  c #2F366D",
">  c #432F51",
",  c #334F4F",
"<  c #2B4556",
"1  c #1C4570",
"2  c #2F496C",
"3  c #2A4475",
"4  c #3A5777",
"5  c #4D5259",
"6  c #494D6E",
"7  c #595E7A",
"8  c #666A78",
"9  c #14398C",
"0  c #133895",
"q  c #243B89",
"w  c #0E3AA9",
"e  c #133AAB",
"r  c #0526BB",
"t  c #1339B5",
"y  c #19468A",
"u  c #18459A",
"i  c #2B4585",
"p  c #374D84",
"a  c #274896",
"s  c #325591",
"d  c #34569A",
"f  c #37649B",
"g  c #1B45A5",
"h  c #1C47B8",
"j  c #264CA6",
"k  c #334BAB",
"l  c #2B56A6",
"z  c #3559A7",
"x  c #254BB8",
"c  c #2854B8",
"v  c #355BB9",
"b  c #3C6AAC",
"n  c #3B66B8",
"m  c #4F588A",
"M  c #4F6D91",
"N  c #47669B",
"B  c #74728C",
"V  c #4C5DAA",
"C  c #486DA8",
"Z  c #446AB9",
"A  c #4A74BA",
"S  c #537CB8",
"D  c #667CB2",
"F  c #1736CE",
"G  c #244AC4",
"H  c #2B57C5",
"J  c #355BC7",
"K  c #2548D5",
"L  c #2550D0",
"P  c #2C55D6",
"I  c #375DD5",
"U  c #3C67C6",
"Y  c #3D65CA",
"T  c #3C66D6",
"R  c #3D67E9",
"E  c #426BC2",
"W  c #436CCB",
"Q  c #486BC8",
"!  c #4B74C4",
"~  c #4977C4",
"^  c #4372CC",
"/  c #4B72CC",
"(  c #527CC2",
")  c #5679C6",
"_  c #537CCB",
"`  c #436BD4",
"'  c #4468D9",
"]  c #4B74D3",
"[  c #4B77D7",
"{  c #4C74DC",
"}  c #537CD4",
"|  c #567AD9",
" . c #547CDB",
".. c #466BE4",
"X. c #4D77E7",
"o. c #547DE2",
"O. c #567BE8",
"+. c #5178F6",
"@. c #5A8BB0",
"#. c #5984B9",
"$. c #6586B7",
"%. c #728BB4",
"&. c #6895BB",
"*. c #5985C8",
"=. c #5B84CD",
"-. c #4E80D1",
";. c #5581D7",
":. c #5B84D4",
">. c #5E8AD4",
",. c #5A84DC",
"<. c #5D8BDA",
"1. c #688BC7",
"2. c #638BCD",
"3. c #7386C1",
"4. c #6894CB",
"5. c #7598C8",
"6. c #638CD3",
"7. c #6388D8",
"8. c #638ADC",
"9. c #6997D3",
"0. c #6492DB",
"q. c #6B94DC",
"w. c #6E9BDC",
"e. c #769AD5",
"r. c #739CDB",
"t. c #76A4CB",
"y. c #78A5D8",
"u. c #7CABDC",
"i. c #7FB1DD",
"p. c #5B84E3",
"a. c #5C88E7",
"s. c #5C84EC",
"d. c #5B84F5",
"f. c #638CE5",
"g. c #658BE9",
"h. c #6593E5",
"j. c #6B94E3",
"k. c #6D9AE4",
"l. c #6996EB",
"z. c #6B94EC",
"x. c #749DE3",
"c. c #7499EA",
"v. c #668CF8",
"b. c #6C95F4",
"n. c #6B96F9",
"m. c #749AF3",
"M. c #779AF8",
"N. c #759CFB",
"B. c #74A3E4",
"V. c #7BA4E3",
"C. c #7CAAE3",
"Z. c #74A6EB",
"A. c #78A7EA",
"S. c #7BA3EC",
"D. c #7AA4F3",
"F. c #7DAAF4",
"G. c #75A2F8",
"H. c #7BA4FD",
"J. c #7DAAFC",
"K. c #8D8BA6",
"L. c #82B2BF",
"P. c #859CCF",
"I. c #83A8CB",
"U. c #89B7CC",
"Y. c #83AAD8",
"T. c #84B3DC",
"R. c #8BB7D8",
"E. c #96B9D9",
"W. c #86A9E7",
"Q. c #83ADE4",
"!. c #83ACEC",
"~. c #90AEEB",
"^. c #84B3E4",
"/. c #8BB7E6",
"(. c #85B3EC",
"). c #8AB4EB",
"_. c #8DBBEB",
"`. c #96BAE6",
"'. c #94BCEA",
"]. c #83ACF4",
"[. c #83A7FA",
"{. c #83ACFC",
"}. c #8AADFE",
"|. c #84B2F3",
" X c #8BB4F4",
".X c #8CBBF4",
"XX c #85B5FC",
"oX c #8BB4FE",
"OX c #8DBBFE",
"+X c #93BCF4",
"@X c #97B9F9",
"#X c #93BCFE",
"$X c #A3BDEE",
"%X c #9AC4DA",
"&X c #A6CDDA",
"*X c #93C2E4",
"=X c #9CC7E3",
"-X c #96C9E6",
";X c #93C2EC",
":X c #9BC5EB",
">X c #9DCCEC",
",X c #94C3F4",
"<X c #9BC3F4",
"1X c #9CCCF4",
"2X c #94C3FE",
"3X c #9BC5FE",
"4X c #9DCBFE",
"5X c #9FD0FC",
"6X c #A7C9E7",
"7X c #A4CCED",
"8X c #A8D5EA",
"9X c #B8DBED",
"0X c #A2CCF4",
"qX c #A8C8F5",
"wX c #A2C5FD",
"eX c #A3CCFF",
"rX c #AACDFD",
"tX c #B6CCFA",
"yX c #A4D4F5",
"uX c #ABD3F5",
"iX c #ADDBF3",
"pX c #A4D3FE",
"aX c #ABD4FE",
"sX c #A6D9FD",
"dX c #ACDBFF",
"fX c #B6DAF7",
"gX c #B2D5FE",
"hX c #B3DDFE",
"jX c #BBDDFF",
"kX c #B4E3F4",
"lX c #B7E5F4",
"zX c #B4E3FE",
"xX c #BBE4FE",
"cX c #B6EAFE",
"vX c #BCEBFF",
"bX c #BEF3FF",
"nX c #C2DEFF",
"mX c #C4EEE8",
"MX c #C2E6FF",
"NX c #C3ECFF",
"BX c #C9E9F8",
"VX c #CAEDFF",
"CX c #D5ECFF",
"ZX c #C4F3FF",
"AX c #C8F7FD",
"SX c #CBF4FF",
"DX c #CCFCFF",
"FX c #D2FDF2",
"GX c #D2F4FF",
"HX c #DCF5FF",
"JX c #D3FCFF",
"KX c #DBFDFF",
"LX c #E6FAFF",
"PX c #E3FEFF",
/* pixels */
"; i 3 M lXSXKX@.O # ; i N D `.&.a a d i $.nXPX:X- 3 - @ @ ; @ O i D NXVX<XrXwXrXwX@XaXjXR.ZXSXA M.o.:.>.C.pXpXiX>XvXqXMXx.a k m ",
"- 0 d p 3 E.rXR.`.uXI.%X6XE.M D D 1. Xx.l a k z s i s m 4 6 4 p - 1 N d y l z k z a C !.#.Q.!.2.}.M.c.*.9._.T.s 1 - 1 # @ - q & ",
": | @Xr.jXgXBXGXGXGXSXSXJX6XaX+X+XQ.eXpXW._ m.g.Z *./.vXVXVXjXgXyXuXeXq.) 9 7.m.) 7.#X7.oXeX( Z n ~ A y.vXhXxX3XyXVXBXMX3.D D & ",
"4 wXMXtXSXJXBXmXBXJXSXVXKXY.@XnXY.'.gXsX'.rX7.| rXfXxXNXMXMXVXNXJXyX^.@X@X[.~ j 7.eXk.oX].3X#X! E ! _ hXaXB.C 3XNXSXxXVXCX$X3.> ",
"2 `.uXCX&XBXmXFXmXPXVXHXrX) | BXrX'.VXE.E.yX@Xx.gXMXxXhXjXxXGXVXI.:X).V.}.rXMXc.wX].|. Xx.].zX[.n :.zXB.#.w.r.=.r.gXgX6X$XnXP.5 ",
", %XGXGX&X&XFXKXFXSXGXjXQ k Y }.eXJXU.%X=X:X4XpXeXaXMXhXNXxXNXuXaXY.+X@XW.[.) MX3XV.4XV.V.!.F.hXoXaXB.4.4.w.k.}.x.9.SX:X6XE.$XB ",
", CXKXtX%X%XmXmXJXDXMX7.v ' ' |  X>X&X8XiX/.dXC.eX4XVXzXvXNXSXnXQ.rX XwX!.4.a NX!.3X^._.y.C.Z.zXvX)..X5.i.F.sXD.Z 8.wX/.~.~.tX5 ",
"7 MX$XrX6X%X&XJXJXvX$XZ | O.' / +XzXbXzXdXvX.XC.r.5.bXcX9XiX8X/.eX[.c.A x.A a vXeX4XsX*Xu.t.y.(.NXsXaX1X_.5XF.f.E | wX+XrXP.$X7 ",
"6 CXnXjXuX6XxXDXJX1X.X2Xk./ p.[.hXhXhXZXcX4XC.*.f f cXcXkXiX0XQ.m.b.c.2.r.V.A.NXeXhX*XdXT.T.t.y.pXzXT.sXcX2XD.b.| E eX4XQ.<XhX8 ",
"4 LXGX9XMXGXxXJXDX;X_._.4.6.#X#X@XxXVX3Xu.u.*.:.*.,XDXDXzXcX/.,X}.c.}.~.).Q.oXJX3X4XzX/.1X^.OX2Xr.dXcXvX5XC.J.a.] p.hXzX).pXhXB ",
"o LXBXBXSXSXSXhXeXDXdX4Xi.,XeXZ j m.aXpXV.C.OX*.5XdXAXDXcXdXpXpXS.S.).wXu.,XDXaX#XhXzX2X.XaX3X! l 9.vXpX.XXXJ.h.W G.3XZXdXR.dX8 ",
", mXLXBXVXxXhXb A OXcX2XzX2Xz ] x v ].hX X4XB.F.2XJ.u 4XKXvX4XB.V.4XiXt.iXDXhXn Q 2XxXsXzXoXv ` x v D.cXOXF.l.n f.OX(.dXcX8XZX5 ",
"o PXGXGXSXxXe._ v u XXxXD._ b.` ..J Z ,XsXsX2X5Xl.h h u w.bXDX5XeXpX&.cXbXAXf z u j oXxXJ.} v.R R x W 2X5XZ.-.-.OX{.y.Y.7XvXDX5 ",
", KXKXVXVXy.#X#Xl.W U 3Xn.p.O.n.d.J | 6.sXcXsX<.H g w U T h.-.SXvXQ.yXZXKX@.].M.{ Y j oX[.] n.v.+.' g.~ 5XZ.*.2X2X0.C.Y.I.=XZX8 ",
"< 6XKXVX5.,XsXXX2XD.U ,.rXQ g.v.v.d.;.-.bXbXb H h L T a.X.x H g oXNXKXZX@.i.oXl.M.J Q _ aXA o.v.v.+. .k..X4X.X2XZ.0.A.).Y.Y.VX5 ",
"X D KXe.,XxX*Xi.i.(.j.g.g.@X/ O.n._ -.5Xi.Z.Z.T n.G.d.H H +.L t e _ JX5.t.1XoXv.H ' } 0.6.F./ p.v.p.E 4Xt.;XzX2XS.].c.W.W. XBX$ ",
"# f gX~.NXpXR.*X;X9.9.D.}.D.]._ :.j.sX0.~ U J.4XG.R g H T R R K t o.hXT.dXeXm.J O.n.~ w.XXw.2X*.,.G.4Xw.@.b (.sX4XOXV.V.+X~.jX: ",
"# 2 VXjXdX%XdX5XQ.].aXz.c.j.zXC.aXdXZ.n U p.H d.5XR c T a.P R K F I xXcXNXe.M.M.m.f.eXr.w.w.dXF.sXaXA.b U } c g.aXdX^.i.5./.VX6 ",
"# 3 xXNXSXcXyX4X3X3Xc.7.c.9.+XbXsXC.~ f.b.H H h p.2Xd.;.T T +.L r w ZXvXcXxX[.}.c.@XW.*.|.Z.C.ZXsXC.A 0.n.H J h a.aXsXyXyXNXnX& ",
"O 1 jXxXNXcX>XdX<X~.1.V.3XY.T.zXB.q.Z.OX-.U c H H n.5XX.H T H -.e e zXcXDXzX'.#XrXQ.&.T.,X9.y.bXy.9.Z.OX[ T x H v XXzXbXvXSX@X+ ",
"@ 9 Y.NXJXvX=XxXE._.<X3X5X*XsXbX X2XOXk.<.n ^ c c p.2XY ^ ,.z.Z J } pXZXDXzX>XbX'./.>X>X5X-XcXvX(.2XOXl.l.U { x j x.1XdXJX+XZ = ",
": V m %.iXJXiXU.7XyXaXdXbX4X-XdXpX2XB.Z.<.G.-.U l.l.5X<.:.j.:.n [.4XxXNX1XKX8XR.*XhXyX>XSXdX.XdX5X4XB.B.a.n.o.^ l.w.cXNXpXS z & ",
"@ tX$X&.L.lXJXSXzX7XsXSXsXC.#.#.4Xr.5XG.n.G.n.l.0.:.dX*.9.*.=.#XhX-.l A 9.dXJXcXcX>X7XDXdX9.Z >.4XB.pXZ.k.H.l.h.>.*.zX1X4.V _ : ",
"* tXnXBXDXlXlXDXSXzXVXzX0.A n ~ Q.dX4X4XG.G.J.l.{.sXJX3X3X6.wX{.l g.n.c 0 y sXZXyXsXDXZX=.~ ,.E F.sX2X4XA.B.D.k.(.vXNX>X`.7.k 6 ",
"% nXLX9XSXDXAXDXAXJXxX2.j.g.{ U S aXhX#XoXz.m.hXJ.( ].ZXhX3X].! m.N.+.' x g a GXvXJXzX*.h.,.| W _ sXzX2X.X9.k.zX,X_.yXDXdX).S & ",
"% LXCXKXJXJXJX8XJXKXr.c. .s.T o._ 6.xXNX!.pXdX8.U U k j jXoX2.rXH.X.+.I I e 9 @XZXDXw.G.o.v.J O._ 2.zXZX(.5XcX).dX>X>X8XhXaX| 6 ",
"% MXHXPXKX8XiXvXJXMXq.7.m.] v.p.7.z V.VXSXzXA ^ ` o.x g v CX#X7.8.[.O.X.G T eXZXJXZX9.,.g.X.g.f.>.d i.vXcXcXi.dXdXiXcX8XgXnX@X& ",
"% CXLXBX7XjX:XqX+XrX X7.:.a.;.m. X].r.2XV.|.~ ;.p.X.Y x v g.jXj.#X| Y x ..eXG.w./.4X Xk. .M.| k.2X4.u.5Xt.5XdXzXyXdX>XlXzXqXVX= ",
"< P.nXP.$X3X+X1.$.1.wXW.e.6.B.OXA.aX4XeX*.<.,.;.| { Y ` W e oXgXx.A Q O.}.v.7.2.S 4.3X!.7.0.e.+X|.aX4X,X/.1XdXsXzX=XvXkX9XNXNXB ",
"% @ %.$XrX#XW.e.e.A ) NX^.5.dXpXhXaXeX7.z ,.,.n.a.g.} W Q 7.z.GXBXD }.[.g.7.( 6.=.=.( xX).e.3XaXeXhXzX4.t.pXsXzXzXvXzXkXxXDXMXK.",
"< * `.@XrXW.oX[.}.) P.~.MX*XJXZXaX6.3XeX! / J.] n.g.p. .m.g.<.wXGXgX}.c.~ j.A.x.7.f.7.W.JX6XSXJXeX8. XzXzX4.u.dXvXpXZXkXVXJX5.K.",
", M tXrXW.#X}.}.x.~.@X3.rXKXDXNX( :.<.pXcX8.<.G.p.d.{ G.z.n A Q.KXKX@XM.j.W.r.=.n.M.z.2.=XKXSXVX_ 8.2.3XZXC.(.4XdXxXzXJXKXE.&.K.",
", D 9XVXrXaXW.3XwX@XwX+XW.JXMXS m.a.[ -.|.4XB.-.[ v.H.s.,.A *.dXaX4.2X}.J.!.w.[.{.v.m.+X5.JXHXA c.| | :.Z.sX4XZ.i.cXcXbXcX$.1.K.",
"< tX%XlXNX>X<XaXgX`.rXgXjXgXY.) ..R X.H A bXC.*.;.a.v.p.;.4.yXi.2.7.h.H.g.h.c.OX].F.r.e.hXxXW.Q ] ' ..J ~ bX.Xi.2X2XcXbXA Z q.m ",
"4 vXJXE.7XSXhX:XdX7XjXrXoXZ rXf.R T h c dXZ.F.2X<.h.J.;.<.pXe.#.k.2X;.g M.dXl.=.w.r.q.wX@Xv $Xb.T T F H cXZ.XXsX9.i.5Xt._ V Q : ",
"M ZXSX9XiXiXVXdXyXvXrXW.U v g.@XH G U 4XT ;.^ H.cXOXw.w.dXOXq.q.OXa.X.G I H.4X2.e.!.wXl.Q c g.@Xc H Y 2XU -.^ G.cX2X5XcXoX6.V m ",
"4 FXvXvX9XR.cXvXSXzXOXv J | k tXU j 2Xn o.I ' Y :.dXzX4XsX*.2X3X7.} +...t T pXhXpXvXoXW J { E eXU c 2Xb } H T U j.dXzXvXMXMX4.7 ",
"4 BXVXNX8XY./.ZXJX(.( ! v ' I m.J.4X0.n U s.I J n F.vX;XT.pXdXoXg.O.' X.I g n xXSX].:.Q v ` x H.J.2X0.U n <.J Y J l.ZX1XaXVXMX$ ",
"M VXVXvXzXR./.zX_.2.! | x I ' W {.|.J.k.c.g.[.' ` E cX>X*XdX5XJ.g.c ' O.s.U 9 xX Xq.Z } Y x ` ^ OXF.J.l.Z.<.G.R T [ zX%XZXiXqX= ",
"4 qXJXhXxXyXdX5X9.w.#X} O.{ o.p.OX4X#XOX#XoX{ G x g cX8XkXsXsXB.g.[.[.{ v.} y 4Xe.V.oXo.{ O.[ ;.2X2X2XXX2XXX[ H G g zXvX9XlXE.$ ",
"< p HXMXSXzX'.bX;X2XJ.2Xl.a.W H.eXsXOX2X#Xc.W ' X.j dXbXiXiX;X.Xc.c.g.| [.j.Q.NX/..XoX#Xl.[ ;.G.2XsX2X2X,XB.] ' ` j ZXlX9XkX&.6 ",
"< - N jXVXxX*XAX5XF.XXXXG.<.XX2XD.4XzX/.B.f.X.d.;.2XDXDXkXcXT.2X}.c.}.~.|.^..XDX2X|.2XF.J.:.XX2Xn.sX5X;Xw.:.p.} =.,XKXSXlXlX5.5 ",
"* - 9 N 0XhXDXzX_.dXsX2XB.2X4XZ g Z.dXpXS.l.oXO.5XsXbXbXbXiX5X5XS.S.+XwXY.;XDXaX2XdXdX2XB.2X4X` x n.dX1XB.Z.oX=.4XeXDXKXVXBX$.m ",
"< @ p Y.rXDXzX@.b 4XcX5XdX2Xb W j v (.dX,X3XH.[.2XG.y 2XDXbX-Xi.c.wXiXt.iXDXhXb ! 2XcXsXdXOXU ` x Y B.zX4X2XB.(.dXiXzXDXlXnX3.6 ",
"= : P.$XGXKX0X@.y f eXcXOXS q.U Y H n ,XdXsX4X4Xl.h u u 9.bXDX4XeXaX&.zXbXDXf v u 0 |.vXC.#.l.U ' c ~ #XzXeX/.bXiXZX9XSXBXNX~.& ",
"& q D HXKXuXhXt.2.D.0.2X|.( l.f.s.T -.j.yXcXcX-.H h h U U 0.-.bXvX!.pXcXKX@.|.c.} n a oXD.~ j.g. .v p.8.pXzXZXcXZXZXvXvXGXVX$X= ",
"* : m nXGXfX=XhXzXc.l.~ sXA } n.d.v.-.<.cXbXC l c P R d.d.c H u OXxXKXZX#.C.oXh.M.v  .] 4X/ } h.f.m./ 8.xXDX*XZXDXcXZX%X9XGX@X& ",
"* : 4 V CXSXhXJXw.} ! ,.6.}.` v.n.X.U sXZ.Z.0.#.a.G.+.P L +.h h 9 *.DXy.y.4XoXl.c ' s.s.g.oX} p.n.] S eXD.OXyXzXlXvXjX6XfXGXtX$ ",
"% @ m $XNXSXJX@.*.l./ M.#Xm.{.| p.l.5Xh.~ U G.5XG.U h L R R P G 0 *.zX^.dXeXc.v O.v.{ n.#Xz.J.| | m.3XB.-.c XX5X-XkXY.VXJXjXrX+ ",
"% 4 nXjXcX-X&.i.Z.f.eXm.l.q.hX).sXsXF.n U [ H a.5X} h P d.T R K t c vXzXzXT.S.S.c.z.@X[.c._ NX(.wXxXF./ ^ T n <.5Xi.1XbXMXrX$X+ ",
"$ E.HXxXDX8Xt.^.w.#X{.| {.V.).ZXsXC.~ h.n.H P h X.2Xa.-.T T R H t 0 SXZXzXzXY. XW.@X}.2.[.V.+XxXvXy.c.l.a.T H c -.XXsX5X@XtXnX  ",
"X P.jXSXbXiX-X,XpXC.6.].@Xe.t.vXu.0.Z.XXs.I G H h G.sXT H X.T d.e 0 dXvXDXiX`.'.$XW.6.e.+XQ.u.NX^.eX2XD.a.c c g U J.dX5XqXqXqX  ",
"# %.tXKXSXNXiXyX:X/.3X3XeX<XzXvX.X2X2Xb.v.T R H h -.5XU [ +.d.R v ;.4XZXDXzXiXcX@XW.eXeXpX'.dXZXaXzX4XpXa.^ p.c g l.#XQ.`.fX9X  ",
"* nXHXBXVXDXfX>X`.hXrXqXSXhX+XhX5X4Xk.G.a.n.;.^ n.Z.5X<.<.h.a.U G.sXxXvX4XKXiXU.<XxXeXaXJXpX.XvXzX;X2XZ.f.n.T U h.OXpX>XgXNXmX  ",
", LXLXGXMXNXJXkXxX7XqXJXaXr.Z 2.5Xw.pXZ.k.J.l.0.-.0.cX-.<.0.<.XXhX,.c Q 6.1XJXZXhXaX3XSXzXt.C 1.:XhXhXc.OX{.a.J.XX,XyXzXNXNXMX= ",
"5 HXHXLXSXZXJXJX8XiXJXVX2.~ ,.U C.sX5X2XB.B.C.9.,XsXbX,X5X-.2X2Xl p.d.c l d pXSXaXhXJXhX*.A ( A <X:X<XaX4Xk.2X4XzXcXbXxXxXBXBX$ ",
", LXGXGXJXFXt.DXvXKXhX#.q.,.X.W S sXzX2X.X4.y.dX^.&.^.vXdX4XA.Z N.v.' I  .h.f SXxXSXxX( S.x.=.#Xt.xXNXpXu..X5XZXcX*X%XxXxXrXqX+ ",
", LXGXSXKXlXbXbXJXDXu.4.*.,.T O.*.*.xXxXOXeXaXu.C.^.'..XpXaX2.eXG.U { { | Z C `.DXJXe.C.oX{.#X4X$.5.VXxXyXbXbXbX>XT.T.T.GX$XP.> ",
"< L.KXDX8XU.DXDXSXzXpX'.>.l.n.s.7.z r.JXxXaXQ.<XzXzXQ.Q.3XNXc.7.W {  .7.m.6.).MXJXNXY.3XW.wXhXrXI.MXxXVXDXZXvX7Xi._.5.~.$XCXN   ",
"* 3 N &.*XbXDX8XlXAXzXxX,XA 0.<.oXr.y.wX'.hXrXSXVXI.qX<X@X).NX7.H.:.q.r.4.).VXaXlXGX7X5.aXeXxXNXKXfX8XxXxXDX0X4.t.).wXnXCXP.@ . ",
"; i N +XSXSXiXbXMXuXuX0XZXdXy.3X+XrXGXGXxXMXMXMXxX7XjXNX~.1.rX#X! 0..XY.qXjX0X7XNXSXxXuXhXSXSXKXMXPXMXNXVX:Xy.e.V.$XCXCXP.: O > ",
"3 a jXKXJXlXNXBX9X8XxXKXGXSXzXeXhXgXNXVXVXKXJXmX9XVXBXMXqXrXnXjXwXMXKXhXuXhXxXGXGXfXuXVXGXJXlXJXKXSXVXfXMXe.1.Y.wXHXHXm & @ & . ",
"3 q CXHXMXKXGXGXBXHXtXm m MXVXJXBXMXVXLXGXBXBXBXLXHXGXtX@XW.3.d j oXNXKXKX8XGXKX+XD 3.uXGXJXPXJXCXM Y.$XNX@XQ.gXHXLX4 @ & @ : . ",
"@ i $XHXKXGXmXLX6X2 - 3 3 %.PXjXy.s ; I.PXPXHXKXHXfXC p - a q k j a C qXPXPXGX$.V Z N 5.6XKXKXCXd a d e.PXgXVXKXMX; : : @ & & . "
};
